<?xml version="1.0" standalone="no"?><!DOCTYPE svg PUBLIC "-//W3C//DTD SVG 1.1//EN" "http://www.w3.org/Graphics/SVG/1.1/DTD/svg11.dtd"><svg t="1607950880799" class="icon" viewBox="0 0 1496 1024" version="1.1" xmlns="http://www.w3.org/2000/svg" p-id="1237" xmlns:xlink="http://www.w3.org/1999/xlink" width="292.1875" height="200"><defs><style type="text/css"></style></defs><path d="M409.915077 269.312a78.532923 78.532923 0 0 0 0-110.355692l-1.024-1.024a76.8 76.8 0 0 0-109.331692 0L22.685538 437.405538a78.611692 78.611692 0 0 0 0 110.434462l276.873847 279.473231a76.8 76.8 0 0 0 109.331692 0l1.024-1.024a78.532923 78.532923 0 0 0 0-110.355693L243.396923 547.84a78.611692 78.611692 0 0 1 0-110.434462l166.518154-168.093538z m1064.014769 168.093538l-276.873846-279.47323a76.8 76.8 0 0 0-109.331692 0l-1.024 1.024a78.532923 78.532923 0 0 0 0 110.355692l166.596923 168.093538a78.611692 78.611692 0 0 1 0 110.434462l-166.596923 168.093538a78.532923 78.532923 0 0 0 0 110.355693l1.024 1.024a76.8 76.8 0 0 0 109.331692 0l276.873846-279.473231a78.611692 78.611692 0 0 0 0-110.434462zM1009.033846 110.907077l-398.729846 853.070769c-12.918154 26.860308-35.603692 60.022154-64.827077 60.022154h-1.575385c-56.792615 0-93.892923-77.193846-68.765538-129.260308L871.502769 49.624615c12.918154-26.781538 60.809846-47.734154 60.809846-47.734153V0c77.351385 0 101.769846 58.840615 76.642462 110.907077z" p-id="1238" fill="#2c2c2c"></path></svg>